<svg width="320" height="72" viewBox="0 0 320 72" xmlns="http://www.w3.org/2000/svg">
  <rect width="320" height="72" fill="#0f0e1a" rx="10"/>
  <polygon points="36,4 60,18 60,46 36,60 12,46 12,18" fill="#534AB7"/>
  <polygon points="36,10 56,22 56,42 36,54 16,42 16,22" fill="none" stroke="#8b84e0" stroke-width="0.8" opacity="0.5"/>
  <circle cx="36" cy="32" r="5" fill="#ffffff"/>
  <circle cx="22" cy="24" r="2.5" fill="#AFA9EC"/>
  <circle cx="50" cy="24" r="2.5" fill="#AFA9EC"/>
  <circle cx="22" cy="40" r="2.5" fill="#AFA9EC"/>
  <circle cx="50" cy="40" r="2.5" fill="#AFA9EC"/>
  <circle cx="36" cy="16" r="2.5" fill="#7F77DD"/>
  <circle cx="36" cy="48" r="2.5" fill="#7F77DD"/>
  <line x1="36" y1="32" x2="22" y2="24" stroke="#AFA9EC" stroke-width="1" opacity="0.7"/>
  <line x1="36" y1="32" x2="50" y2="24" stroke="#AFA9EC" stroke-width="1" opacity="0.7"/>
  <line x1="36" y1="32" x2="22" y2="40" stroke="#AFA9EC" stroke-width="1" opacity="0.7"/>
  <line x1="36" y1="32" x2="50" y2="40" stroke="#AFA9EC" stroke-width="1" opacity="0.7"/>
  <line x1="36" y1="32" x2="36" y2="16" stroke="#7F77DD" stroke-width="1" opacity="0.6"/>
  <line x1="36" y1="32" x2="36" y2="48" stroke="#7F77DD" stroke-width="1" opacity="0.6"/>
  <text x="76" y="44" font-family="Arial, sans-serif" font-size="32" font-weight="700" fill="#ffffff" letter-spacing="-0.5">Zy</text>
  <text x="116" y="44" font-family="Arial, sans-serif" font-size="32" font-weight="700" fill="#8b84e0" letter-spacing="-0.5">n</text>
  <text x="135" y="44" font-family="Arial, sans-serif" font-size="32" font-weight="700" fill="#ffffff" letter-spacing="-0.5">tello</text>
</svg>
